<?xml version="1.0" encoding="UTF-8" standalone="no"?>
<!-- Created with Inkscape (http://www.inkscape.org/) -->

<svg
   width="135.46666mm"
   height="135.46666mm"
   viewBox="0 0 135.46666 135.46666"
   version="1.1"
   id="svg5"
   sodipodi:docname="nsorpc.svg"
   inkscape:version="1.1.2 (0a00cf5339, 2022-02-04)"
   xmlns:inkscape="http://www.inkscape.org/namespaces/inkscape"
   xmlns:sodipodi="http://sodipodi.sourceforge.net/DTD/sodipodi-0.dtd"
   xmlns="http://www.w3.org/2000/svg"
   xmlns:svg="http://www.w3.org/2000/svg">
  <sodipodi:namedview
     id="namedview7"
     pagecolor="#ffffff"
     bordercolor="#666666"
     borderopacity="1.0"
     inkscape:pageshadow="2"
     inkscape:pageopacity="0"
     inkscape:pagecheckerboard="false"
     inkscape:document-units="mm"
     showgrid="false"
     inkscape:zoom="0.48945419"
     inkscape:cx="527.11776"
     inkscape:cy="-117.4778"
     inkscape:window-width="1920"
     inkscape:window-height="953"
     inkscape:window-x="1920"
     inkscape:window-y="32"
     inkscape:window-maximized="1"
     inkscape:current-layer="layer2" />
  <defs
     id="defs2">
    <clipPath
       id="clip0">
      <rect
         width="71"
         height="55"
         fill="#ffffff"
         id="rect25"
         x="0"
         y="0" />
    </clipPath>
  </defs>
  <g
     inkscape:groupmode="layer"
     id="layer2"
     inkscape:label="Layer 2"
     style="display:inline">
    <rect
       style="fill:#e60012;fill-opacity:1;stroke:#008080;stroke-width:0.119892"
       id="rect1900"
       width="135.34677"
       height="135.34677"
       x="0.059946001"
       y="0.059946001" />
  </g>
  <g
     inkscape:label="Layer 1"
     inkscape:groupmode="layer"
     id="layer1"
     transform="translate(-23.652708,-17.936148)">
    <path
       style="fill:#ffffff;stroke-width:0.19112"
       d="m 60.432083,126.7535 c -8.103404,-0.83061 -15.282741,-3.57081 -20.920131,-7.98478 -1.785438,-1.39797 -4.895832,-4.5566 -5.831953,-5.9224 l -0.647854,-0.94521 0.225505,-4.5017 c 0.539208,-10.764098 2.219271,-20.184018 5.565068,-31.202698 1.803234,-5.93857 4.635755,-13.169905 7.302269,-18.642459 l 1.327168,-2.72378 2.524396,-1.67197 c 7.11199,-4.710457 15.211206,-7.674642 23.176302,-8.482158 l 2.249279,-0.228037 0.433665,0.543865 0.43366,0.543864 -3.857392,1.283925 c -7.941273,2.643235 -15.327395,6.286381 -20.238069,9.982261 -2.344794,1.764744 -2.413167,2.026208 -0.246737,0.943546 6.416209,-3.206464 13.500018,-5.713492 20.092495,-7.110926 2.565373,-0.543793 6.086332,-1.053803 10.868893,-1.57436 3.081678,-0.335426 13.963073,-0.332902 17.009652,0.0039 9.855151,1.089639 19.384061,3.848838 28.046811,8.121266 1.55046,0.764678 2.81902,1.327359 2.81902,1.250405 0,-0.278998 -3.88146,-3.054831 -6.25992,-4.47679 -4.48422,-2.68089 -10.45424,-5.369903 -15.93967,-7.179534 l -2.43655,-0.803815 0.58027,-0.73265 c 0.65566,-0.827839 0.6499,-0.826931 3.37469,-0.531278 7.6491,0.829966 15.79094,3.855363 22.72026,8.442539 l 2.51971,1.668042 1.18419,2.432159 c 7.87159,16.16716 12.33335,33.774255 13.1036,51.709713 l 0.12922,3.00885 -1.07624,1.40513 c -4.49977,5.87485 -12.27804,10.56724 -20.61676,12.43746 -2.25931,0.50673 -6.46455,1.06732 -8.0064,1.06732 -0.99158,0 -0.56094,0.4342 -5.28446,-5.32814 l -1.96076,-2.39198 2.24744,-0.78498 c 4.07188,-1.42223 7.51076,-3.27029 10.64923,-5.72295 2.16465,-1.69163 5.49687,-5.26616 4.90918,-5.26616 -0.10395,0 -0.87081,0.42288 -1.70415,0.93973 -4.93472,3.06061 -13.73723,6.60513 -20.23074,8.14634 -2.46735,0.58562 -6.80491,1.32467 -9.628007,1.64047 -3.233346,0.36168 -11.110852,0.30925 -14.620658,-0.0973 -10.650048,-1.23367 -21.625396,-4.80313 -29.722834,-9.6666 -1.073779,-0.64493 -1.988158,-1.13677 -2.031947,-1.09298 -0.118255,0.11825 1.400998,1.9979 2.504808,3.09899 3.223797,3.21584 7.848703,6.09144 12.43144,7.72939 0.946044,0.33814 1.871805,0.67102 2.057252,0.73975 0.376234,0.13944 0.314491,0.22347 -3.91862,5.33297 l -2.256321,2.72346 -1.190192,-0.0306 c -0.654602,-0.0168 -1.491202,-0.0614 -1.859108,-0.0991 z m 14.372352,-23.97142 c 2.825105,-0.58914 5.656043,-2.855058 6.937052,-5.552498 2.193065,-4.61797 1.415952,-9.77442 -1.985729,-13.1761 -4.033237,-4.03324 -10.178913,-4.01251 -14.176685,0.0478 -1.999832,2.03111 -3.088621,4.81692 -3.088621,7.9026 0,3.15481 1.100894,5.90926 3.201273,8.009638 2.462477,2.46248 5.766639,3.46632 9.11271,2.76854 z m 36.503855,5.3e-4 c 2.75453,-0.57267 5.603,-2.848878 6.91158,-5.523028 3.17299,-6.48417 -0.20207,-14.40074 -6.80295,-15.95704 -2.29494,-0.54107 -4.30688,-0.30339 -6.54951,0.77373 -2.52879,1.21456 -4.36234,3.36599 -5.372167,6.30353 -0.446127,1.29776 -0.523097,1.83102 -0.523097,3.62399 0,1.79297 0.07697,2.32622 0.523097,3.62398 1.814587,5.278538 6.675837,8.222868 11.813047,7.154838 z"
       id="path924" />
  </g>
</svg>
